<svg id="레이어_1" data-name="레이어 1" xmlns="http://www.w3.org/2000/svg" viewBox="0 0 250 500"><polygon points="46.29 375.62 126.21 424.31 209.1 375.62 129.33 329 46.29 375.62" style="fill:#fff;stroke:#fff;stroke-miterlimit:10"/><polygon points="46.29 375.62 46.29 500.48 126.21 500.48 126.21 423.06 46.29 375.62" style="fill:#e6e7e8"/><polygon points="209.1 375.62 126.21 422.83 126.21 500.48 209.1 500.48 209.1 375.62" style="fill:#e6e7e8"/><path d="M105.71,394.89a3.15,3.15,0,0,1-1.59-.49L76.46,376.83a3.12,3.12,0,0,1,3.35-5.27L105.68,388l35.19-25.3a3.12,3.12,0,0,1,3.65,5.07L107.61,394.3A3.12,3.12,0,0,1,105.71,394.89Z" style="fill:#d9d9d9"/><path d="M123.57,380.36a3.18,3.18,0,0,1-1.59-.49L97.4,364.25a3.12,3.12,0,0,1,3.35-5.27l24.57,15.62a3.12,3.12,0,0,1-1.75,5.76Z" style="fill:#d9d9d9"/><path d="M185.86,508.12a3.13,3.13,0,0,1-3-3.2l2.86-111.14L120.2,354.89a3.12,3.12,0,0,1,3.19-5.37l67.05,39.82a3.16,3.16,0,0,1,1.53,2.77l-2.91,113A3.12,3.12,0,0,1,185.86,508.12Z" style="fill:#d9d9d9"/><path d="M159.45,393.77a3.15,3.15,0,0,1-1.65-.52l-26.23-17.37a3.12,3.12,0,1,1,3.45-5.2l26.23,17.37a3.12,3.12,0,0,1-1.8,5.72Z" style="fill:#d9d9d9"/><path d="M162.09,363.86a3,3,0,0,1-1.55-.46l-27.67-16.95a3.12,3.12,0,0,1,3.26-5.32l27.67,16.95a3.12,3.12,0,0,1-1.71,5.78Z" style="fill:#d9d9d9"/><path d="M142.9,405.83a3.06,3.06,0,0,1-1.65-.52l-26.4-17.54a3.12,3.12,0,0,1,3.45-5.2l26.41,17.54a3.12,3.12,0,0,1-1.81,5.72Z" style="fill:#d9d9d9"/><path d="M133.51,362.33a3.12,3.12,0,0,1-1.64-5.73l9.8-6.45a3.12,3.12,0,0,1,3.43,5.22l-9.8,6.45A3.17,3.17,0,0,1,133.51,362.33Z" style="fill:#d9d9d9"/><path d="M83.55,435.23a7.42,7.42,0,0,1-2.72-3.12,10,10,0,0,1-1.17-4.43,5.42,5.42,0,0,1,.27-1.87,2.71,2.71,0,0,1,.8-1.25A8.06,8.06,0,0,0,82.2,423a25.12,25.12,0,0,0,1.15-2.37s.74,2.44,1.23,3.73a36.07,36.07,0,0,0,1.54,3.27,11.45,11.45,0,0,1,.85,2.21,9.37,9.37,0,0,1,.32,2.22,3.93,3.93,0,0,1-1.06,3.17A2.18,2.18,0,0,1,83.55,435.23Z" style="fill:#73eeba"/><path d="M84.15,448.34c-2.71-5.23-5.39-10.38-8-15.6-.59-1.15.24-5.27-2.36-7.57-4-3.5-4.2,1.39-3.93,3.8-1.77,2-7,4.63-9.23,6.86-2.28,1.47-1.29,6.21,2.2,7.43,1.67.36,2.62-1,3.86-1.62,1-.55,2.06-1.18,3.11-1.85l.23,15.5L70,457a4.61,4.61,0,0,1-.12.56,2,2,0,0,1-.12.19h0l0,0-.19-.05-.36-.22-.36-.33-.16-.23h0l0-.08c0-.12-.05-.24-.07-.36a9.05,9.05,0,0,1,0-1.48l0,.41a6.81,6.81,0,0,0-2.33-5.48,2.51,2.51,0,0,0-1.88-.67,1.57,1.57,0,0,0-1.25,1.39,14.82,14.82,0,0,0,.17,4.88,15.36,15.36,0,0,0,1.62,4.27,15,15,0,0,0,4.19,4.75c1.5,1.07,3,1.41,4.15.94,1.53-.6,2.17-2.46,2.35-4.8,0-1.4,0-2.84,0-4.31l-.15-10.09-.06-4,5,8.81C84.25,459.3,88.36,456.17,84.15,448.34Z" style="fill:#303030"/><path d="M106.28,461.74c-2.71-5.36-5.37-10.62-8-16-.58-1.18.25-5.38-2.34-7.76-4-3.62-4.21,1.37-3.93,3.83-1.79,2-7,4.67-9.24,6.93-2.3,1.49-1.31,6.35,2.18,7.63,1.67.37,2.62-1,3.86-1.64,1-.52,2-1.17,3.08-1.84l.21,15.64,0,1.73a4.78,4.78,0,0,1-.12.57l-.12.19h0l0,0-.2-.05-.35-.22-.36-.34-.16-.24h0a.59.59,0,0,0,0-.08l-.06-.37a10.75,10.75,0,0,1,0-1.51c0,.15,0,.28,0,.42A7,7,0,0,0,88.32,463a2.4,2.4,0,0,0-1.88-.7,1.56,1.56,0,0,0-1.25,1.4,15.25,15.25,0,0,0,.16,5A16.21,16.21,0,0,0,87,473.06,15.62,15.62,0,0,0,91.19,478c1.5,1.1,3,1.45,4.15,1,1.54-.62,2.18-2.51,2.36-4.9,0-1.43,0-2.9,0-4.4l-.14-10.25-.05-4,5,9.11C106.36,472.92,110.47,469.76,106.28,461.74Z" style="fill:#303030"/><path d="M126.21,499.23l-9.85,1.25V430.63L56.17,392.57V499.91H46.32v-119c0-4-.39-5.69,1.22-6.49,2.5-1.25,3.45-.23,5,.73l71.29,46.79c1.49.94,2.41,1.41,2.41,3.26Z" style="fill:#73eeba"/><rect x="145.76" y="217.49" width="46.48" height="88.24" rx="9.4" transform="translate(-50.1 40.26) rotate(-11.85)"/><rect x="148.38" y="223.49" width="39.95" height="70.05" rx="5.82" transform="matrix(0.98, -0.21, 0.21, 0.98, -49.48, 40.06)" style="fill:#fff"/><path d="M169.14,303.72a.28.28,0,0,1-.27-.22.27.27,0,0,1,.21-.32l16.54-3.47a.27.27,0,0,1,.33.21.28.28,0,0,1-.21.33l-16.54,3.47Z" style="fill:#fff"/><path d="M156.08,223.16a.7.7,0,0,1-.68-.55.68.68,0,0,1,.54-.82l9-1.9a.71.71,0,0,1,.82.54.69.69,0,0,1-.54.82l-9,1.89Z" style="fill:#fff"/><path d="M193,375.16,185.36,380a3,3,0,0,1-3-.27l-13.86-9.1c-.77-.46-.75-1.22,0-1.71l7.43-5.23a2.57,2.57,0,0,1,2.74-.19l14.1,9.56C193.69,373.67,193.77,374.62,193,375.16Z" style="fill:#73eeba"/><path d="M179.62,366.5,173,371.06a1.6,1.6,0,0,1-1.56,0l-.57-.35a.52.52,0,0,1,0-1l6.6-4.6a1.44,1.44,0,0,1,1.52-.08l.59.37A.6.6,0,0,1,179.62,366.5Z" style="fill:#fff"/></svg>