<svg id="레이어_1" data-name="레이어 1" xmlns="http://www.w3.org/2000/svg" viewBox="0 0 274 150"><path d="M25.9,76.17C40.66,70.23,47.72,60.06,50.46,51V34.31H63.53V45.66c6.53,5.81,14,13.74,17.64,20.34L70.46,71.81c-2-3.69-5.88-8.18-10.2-12.41C55.82,69.7,46.42,81.19,30.34,87.53Zm44,0C88.49,68.64,94.11,59.4,94.51,51.74V34.31h13.07V51.08c2.47,9,9.52,19.15,24.29,25.09l-4.43,11.36a55,55,0,0,1-25.74-20.6c-4.85,7.53-13.47,15-27.32,20.6Z" style="fill:#73eeba"/><rect x="24.82" y="103.83" width="108.14" height="13" style="fill:#303030"/><polygon points="167.99 116.83 167.99 100.44 142.25 100.44 142.25 87.44 248.87 87.44 248.87 100.44 223.27 100.44 223.27 116.83 210.2 116.83 210.2 100.44 181.06 100.44 181.06 116.83 167.99 116.83" style="fill:#303030"/><path d="M143.68,66.6c26.92-4.87,40.11-13.08,45.22-20V34.31H202v12c5.23,5.57,18.56,12.67,44.95,17.54l-2.08,12.81c-25.1-4.6-40.78-12-49-18.94-8.11,8.5-24.17,17-50,21.72Z" style="fill:#73eeba"/></svg>