<svg id="레이어_1" data-name="레이어 1" xmlns="http://www.w3.org/2000/svg" viewBox="0 0 460 200"><text transform="translate(113.75 152.85)" style="font-size:22px;fill:#a0a0a0;font-family:Korail-Round-Gothic-Medium, Korail Round Gothic Medium;font-weight:500;letter-spacing:0.3999911221590909em">대전시민공용우산</text><path d="M165.52,82.7c14.75-6,21.82-16.12,24.56-25.23V40.83h13.06V52.19c6.54,5.81,14,13.73,17.64,20.34l-10.71,5.81c-2-3.7-5.88-8.19-10.19-12.42C195.44,76.23,186,87.72,170,94.06Zm44,0c18.56-7.53,24.18-16.78,24.57-24.44V40.83h13.07V57.6c2.48,9,9.53,19.15,24.3,25.1l-4.44,11.36a55,55,0,0,1-25.74-20.61C236.47,81,227.85,88.51,214,94.06Z" style="fill:#73eeba"/><rect x="164.43" y="110.35" width="108.14" height="13" style="fill:#303030"/><polygon points="307.6 123.36 307.6 106.97 281.86 106.97 281.86 93.96 388.49 93.96 388.49 106.97 362.88 106.97 362.88 123.36 349.81 123.36 349.81 106.97 320.67 106.97 320.67 123.36 307.6 123.36" style="fill:#303030"/><path d="M283.29,73.13c26.93-4.87,40.12-13.09,45.22-20V40.83h13.07v12c5.23,5.57,18.55,12.67,44.95,17.54l-2.09,12.81c-25.1-4.59-40.78-12-49-18.93-8.11,8.49-24.18,17-50.05,21.72Z" style="fill:#73eeba"/><path d="M115,74.72A4.75,4.75,0,0,1,111.35,73a6.19,6.19,0,0,1-1.53-4.24,6.65,6.65,0,0,1,.4-2.27,6,6,0,0,1,1.14-1.92,20.13,20.13,0,0,0,2-2.69c.65-1.13,1.63-3.4,1.63-3.4s1,2.27,1.63,3.4a19.86,19.86,0,0,0,2.06,2.69,5.94,5.94,0,0,1,1.13,1.92,6.42,6.42,0,0,1,.4,2.27A6.19,6.19,0,0,1,118.73,73,4.74,4.74,0,0,1,115,74.72Z" style="fill:#73eeba"/><path d="M149.93,88.3C136.58,88,132.42,81.44,132.08,78v-.32h0a58.73,58.73,0,0,1,.07-9.8l.07-1.07h-9.27V78.14c0,5.08-5.61,7.81-7.85,8.69-2.2-.87-7.69-3.54-7.84-8.49v-.1h0a.38.38,0,0,1,0-.1V66.85H97.92L98,67.92c.22,3.13.4,8.38,0,10L98,78c-.33,3.4-4.5,9.91-17.84,10.26l-1,0V95l1,0,.75,0c4.44,0,12.16-1.13,18-5v26.31a2.81,2.81,0,0,1-2.41,1,2.87,2.87,0,0,1-2.4-1v-4.14H85.81v4.14c0,5.1,4.8,9.25,10.69,9.25s10.7-4.15,10.7-9.25v-25a18.83,18.83,0,0,0,7.73,2.71l.11,0,.11,0a19,19,0,0,0,8.63-3.29v25.51a2.81,2.81,0,0,1-2.41,1,2.87,2.87,0,0,1-2.4-1v-4.14h-8.29v4.14c0,5.1,4.8,9.25,10.69,9.25s10.7-4.15,10.7-9.25V90.57c6.08,3.67,13.79,4.59,17.86,4.46l1,0V88.33Z" style="fill:#303030"/><path d="M139.53,55.16l-.23,0A50.9,50.9,0,0,1,131,53.51a26,26,0,0,1-6.38-2.88,13.77,13.77,0,0,1-4-3.85A9.13,9.13,0,0,1,119.1,42V38.6h-8.18v3.34a9.94,9.94,0,0,1-1.75,4.93,15,15,0,0,1-4.24,3.94,24.49,24.49,0,0,1-6.31,2.82,39.64,39.64,0,0,1-7.81,1.5l-1.14.11v7.5l1.4-.16a57.39,57.39,0,0,0,15.44-3.64A19.85,19.85,0,0,0,115,52.66a22.3,22.3,0,0,0,8.78,6.27A52.56,52.56,0,0,0,139,62.58l1.4.15V55.26Z" style="fill:#303030"/></svg>