<svg id="레이어_1" data-name="레이어 1" xmlns="http://www.w3.org/2000/svg" viewBox="0 0 179 150"><path d="M89.8,66.11a6,6,0,0,1-4.64-2.19,7.78,7.78,0,0,1-1.91-5.31,8.31,8.31,0,0,1,.5-2.86,7.64,7.64,0,0,1,1.42-2.41A25.73,25.73,0,0,0,87.76,50c.82-1.43,2-4.28,2-4.28s1.23,2.85,2,4.28a26,26,0,0,0,2.58,3.37,7.48,7.48,0,0,1,1.43,2.41,8.31,8.31,0,0,1,.5,2.86,7.74,7.74,0,0,1-1.92,5.31A5.93,5.93,0,0,1,89.8,66.11Z" style="fill:#73eeba"/><path d="M133.63,83.17c-16.77-.45-22-8.63-22.42-12.9v-.4h-.06c-.41-2.25-.19-8.51.08-12.31l.09-1.34H99.67V70.4c0,6.39-7.06,9.81-9.87,10.92C87,80.22,80.14,76.87,80,70.65v-.12h0s0-.09,0-.13V56.22H68.3l.09,1.34c.28,3.94.51,10.53,0,12.55l0,.16C68,74.54,62.75,82.72,46,83.17l-1.22,0v8.39l1.21,0,1,0c5.57,0,15.27-1.42,22.62-6.34v33.05c-.08.36-1.25,1.24-3,1.24a3.62,3.62,0,0,1-3-1.21v-5.21H53.08v5.21c0,6.41,6,11.62,13.44,11.62S80,124.79,80,118.38V87a23.59,23.59,0,0,0,9.7,3.41l.14,0,.15,0a24,24,0,0,0,10.84-4.14v32.05a3.52,3.52,0,0,1-3,1.24,3.57,3.57,0,0,1-3-1.21v-5.21H84.32v5.21c0,6.41,6,11.62,13.44,11.62s13.44-5.21,13.44-11.62V86c7.63,4.61,17.32,5.76,22.44,5.6l1.21,0V83.2Z" style="fill:#303030"/><path d="M120.57,41.53l-.29,0a64.11,64.11,0,0,1-10.48-2,32.38,32.38,0,0,1-8-3.63,16.87,16.87,0,0,1-5-4.83,11.41,11.41,0,0,1-1.83-6V20.73H84.62v4.2a12.57,12.57,0,0,1-2.21,6.18,18.3,18.3,0,0,1-5.32,5,30.54,30.54,0,0,1-7.93,3.55,50.81,50.81,0,0,1-9.81,1.89l-1.43.14v9.41l1.76-.2a72.11,72.11,0,0,0,19.39-4.57A25.19,25.19,0,0,0,89.81,38.4a27.88,27.88,0,0,0,11,7.87,66.42,66.42,0,0,0,19.09,4.59l1.75.18V41.66Z" style="fill:#303030"/></svg>