<svg id="레이어_1" data-name="레이어 1" xmlns="http://www.w3.org/2000/svg" viewBox="0 0 460 200"><path d="M105.71,88.82a4.61,4.61,0,0,1-3.58-1.68,6,6,0,0,1-1.47-4.1,6.48,6.48,0,0,1,.38-2.2,6,6,0,0,1,1.1-1.86,19.51,19.51,0,0,0,2-2.6c.63-1.09,1.58-3.29,1.58-3.29s.94,2.2,1.58,3.29a19.79,19.79,0,0,0,2,2.6,5.8,5.8,0,0,1,1.1,1.86,6.25,6.25,0,0,1,.39,2.2,6,6,0,0,1-1.48,4.1A4.57,4.57,0,0,1,105.71,88.82Z" style="fill:#73eeba"/><path d="M139.47,102c-12.92-.34-16.94-6.64-17.27-9.93v-.31h0a58,58,0,0,1,0-9.49l.08-1h-9V92.12c0,4.93-5.44,7.56-7.6,8.42-2.14-.84-7.45-3.43-7.59-8.22v-.1h0v-11h-9l.07,1c.21,3,.39,8.11,0,9.67l0,.13c-.32,3.29-4.35,9.59-17.27,9.93L71,102v6.46l.94,0h.72c4.3,0,11.77-1.09,17.44-4.89v25.47a2.7,2.7,0,0,1-2.33,1,2.73,2.73,0,0,1-2.33-.93v-4h-8v4c0,4.94,4.65,8.95,10.36,8.95s10.35-4,10.35-8.95V104.94a18.36,18.36,0,0,0,7.48,2.63h.22a18.73,18.73,0,0,0,8.35-3.19v24.69a2.7,2.7,0,0,1-2.33,1,2.73,2.73,0,0,1-2.33-.93v-4h-8v4c0,4.94,4.65,8.95,10.36,8.95s10.35-4,10.35-8.95V104.16c5.88,3.55,13.34,4.44,17.29,4.32l.93,0V102Z" style="fill:#303030"/><path d="M129.41,69.88l-.22,0a51,51,0,0,1-8.08-1.57,24.92,24.92,0,0,1-6.18-2.8A13.12,13.12,0,0,1,111,61.77a8.75,8.75,0,0,1-1.4-4.6V53.86h-7.92v3.23a9.67,9.67,0,0,1-1.7,4.77,14.38,14.38,0,0,1-4.1,3.81,23.26,23.26,0,0,1-6.11,2.73,38.84,38.84,0,0,1-7.56,1.46l-1.1.1v7.26l1.36-.15a55.73,55.73,0,0,0,14.94-3.53,19.33,19.33,0,0,0,8.26-6.07,21.65,21.65,0,0,0,8.5,6.07,51.46,51.46,0,0,0,14.71,3.53l1.35.14V70Z" style="fill:#303030"/><path d="M155.08,96.56c14.76-6,21.82-16.12,24.56-25.23V54.69h13.07V66.05c6.53,5.81,14,13.73,17.64,20.34L199.63,92.2c-2-3.7-5.88-8.19-10.19-12.42-4.44,10.31-13.84,21.8-29.92,28.14Zm44,0c18.55-7.53,24.17-16.78,24.57-24.44V54.69h13.06V71.46c2.48,9,9.53,19.15,24.3,25.1l-4.44,11.36a55,55,0,0,1-25.74-20.61c-4.84,7.53-13.46,15.06-27.32,20.61Z" style="fill:#73eeba"/><rect x="154" y="124.21" width="108.14" height="13" style="fill:#303030"/><polygon points="297.17 137.21 297.17 120.82 271.43 120.82 271.43 107.82 378.05 107.82 378.05 120.82 352.44 120.82 352.44 137.21 339.38 137.21 339.38 120.82 310.23 120.82 310.23 137.21 297.17 137.21" style="fill:#303030"/><path d="M272.85,87c26.93-4.87,40.12-13.09,45.22-20V54.69h13.07v12c5.23,5.57,18.55,12.67,44.95,17.54L374,97c-25.1-4.59-40.79-12-49-18.93-8.11,8.49-24.17,17-50.05,21.72Z" style="fill:#73eeba"/></svg>