<svg id="레이어_1" data-name="레이어 1" xmlns="http://www.w3.org/2000/svg" viewBox="0 0 250 500"><rect x="41.39" y="153.37" width="167.89" height="318.74" rx="9.4" transform="translate(-61.53 32.39) rotate(-11.85)"/><rect x="50.84" y="175.04" width="144.3" height="253.04" rx="5.82" transform="translate(-59.28 31.67) rotate(-11.85)" style="fill:#fff"/><path d="M83.61,293.68a2.45,2.45,0,0,1-2-.4,2.67,2.67,0,0,1-1.15-1.73,2.7,2.7,0,0,1,0-1.06,2.67,2.67,0,0,1,.38-1,9.58,9.58,0,0,0,.76-1.41c.21-.57.48-1.69.48-1.69s.69.91,1.12,1.35a8.58,8.58,0,0,0,1.26,1,2.61,2.61,0,0,1,.74.74,2.73,2.73,0,0,1,.41,1,2.7,2.7,0,0,1-.35,2A2.5,2.5,0,0,1,83.61,293.68Z" style="fill:#73eeba"/><path d="M85.24,300c-2.17-1.44-4.32-2.88-6.46-4.37-.47-.34-.36-2.79-2.19-2.84-2.8-.08-2.46,2.51-2.06,3.63-.9,1.79-3.85,5.4-5,7.54-1.27,1.77-.19,3.79,2.08,2.88,1.07-.56,1.52-1.69,2.22-2.54S75,302.81,75.53,302l1.65,7.83.18.85c0,.11,0,.22,0,.34l-.06.15h0v0l-.13.06-.24.05h-.25l-.13,0h0l0,0a1.09,1.09,0,0,1-.08-.15,4.24,4.24,0,0,1-.13-.78l0,.23a1.85,1.85,0,0,0-2-1.77,2,2,0,0,0-1.23.49,1.81,1.81,0,0,0-.64,1.27,5.58,5.58,0,0,0,.58,2.44,3.85,3.85,0,0,0,1.41,1.48,4.92,4.92,0,0,0,3,.54,4.28,4.28,0,0,0,2.65-1.39,4.49,4.49,0,0,0,1-3.51,20,20,0,0,0-.44-2.18l-1.06-5.07-.42-2,3.91,2.29C86.35,305.5,88.58,302.1,85.24,300Z" style="fill:#303030"/><path d="M100.15,296.89c-2.18-1.44-4.31-2.86-6.46-4.38-.48-.33-.36-2.78-2.19-2.83-2.8-.08-2.46,2.51-2.06,3.62-.9,1.79-3.85,5.4-5,7.54-1.28,1.76-.2,3.78,2.07,2.87,1.07-.55,1.52-1.68,2.23-2.53s1.14-1.5,1.71-2.29l1.63,7.73.17.86a1.83,1.83,0,0,1,0,.33.88.88,0,0,1,0,.15h0L92,308l-.24.05h-.25l-.12,0h0l0,0-.08-.15a5.13,5.13,0,0,1-.12-.77,1.64,1.64,0,0,1,0,.22,1.86,1.86,0,0,0-2-1.77A2,2,0,0,0,88,306a1.81,1.81,0,0,0-.64,1.27,5.52,5.52,0,0,0,.58,2.45,3.82,3.82,0,0,0,1.41,1.47,4.87,4.87,0,0,0,3.07.54,4.28,4.28,0,0,0,2.65-1.39,4.48,4.48,0,0,0,1-3.51,20,20,0,0,0-.43-2.18l-1.06-5-.41-2,3.93,2.3C101.26,302.37,103.49,299,100.15,296.89Z" style="fill:#303030"/><path d="M107,294.89c4.06-2.58,5.57-5.85,5.86-8.55l-1-4.63,3.9-.82.66,3.16a26.33,26.33,0,0,1,6.46,4.55l-2.86,2.28a17.14,17.14,0,0,0-3.77-2.81,15.83,15.83,0,0,1-7.29,9.7Zm13.15-2.76c5.11-3.26,6.23-6.18,5.91-8.33L125,279l3.9-.82,1,4.67c1.26,2.34,4,4.72,8.72,5.45l-.67,3.44a16.61,16.61,0,0,1-8.88-4.12c-1,2.39-3.16,5-7,7.44Z" style="fill:#73eeba"/><rect x="108.43" y="299.77" width="32.99" height="3.69" transform="translate(-59.25 32.07) rotate(-11.85)" style="fill:#303030"/><polygon points="151.91 297.85 150.95 293.29 143.26 294.9 142.51 291.29 174.34 284.61 175.1 288.23 167.45 289.83 168.41 294.39 164.51 295.21 163.55 290.65 154.85 292.48 155.81 297.03 151.91 297.85" style="fill:#303030"/><path d="M141.6,284.85c7.76-3,11.22-6.15,12.34-8.39l-.72-3.42,3.9-.82.7,3.34c1.89,1.22,6.28,2.36,14.44,2.06l.12,3.68c-7.75.3-12.87-.78-15.73-2.19-1.93,2.87-6.23,6.24-13.68,9.17Z" style="fill:#73eeba"/><text transform="matrix(1.01, -0.21, 0.21, 0.98, 88.36, 321.16)" style="isolation:isolate;font-size:6.817107677459717px;fill:#a0a0a0;font-family:Korail-Round-Gothic-Bold, Korail Round Gothic Bold;font-weight:700;letter-spacing:0.3989658945004868em">대전시민공용우산</text><line x1="125.83" y1="463.84" x2="185.59" y2="451.31" style="fill:none;stroke:#fff;stroke-linecap:round;stroke-linejoin:round;stroke-width:2px"/><line x1="78.66" y1="171.32" x2="111.25" y2="164.49" style="fill:none;stroke:#fff;stroke-linecap:round;stroke-linejoin:round;stroke-width:5px"/></svg>