<svg width="37" height="38" viewBox="0 0 37 38" fill="none" xmlns="http://www.w3.org/2000/svg">
<path d="M37 19C37 22.6597 35.9146 26.2371 33.881 29.2798C31.8475 32.3224 28.9572 34.6936 25.5758 36.0934C22.1944 37.4931 18.4738 37.8585 14.8847 37.1433C11.2956 36.4281 7.99926 34.6645 5.41265 32.0756C2.82605 29.4867 1.0654 26.1887 0.353455 22.599C-0.358492 19.0092 0.0102425 15.289 1.41301 11.9088C2.81578 8.52869 5.18957 5.64054 8.23406 3.60973C11.2786 1.57893 14.857 0.496718 18.5166 0.500007C23.4203 0.504415 28.1215 2.45546 31.5874 5.92441C35.0532 9.39335 37 14.0964 37 19Z" fill="white"/>
<path d="M18.5166 36.5771C22.0042 36.5755 25.413 35.5398 28.312 33.601C31.211 31.6622 33.4701 28.9074 34.8036 25.6848C36.1371 22.4622 36.4851 18.9166 35.8037 15.4963C35.1223 12.0759 33.4421 8.93437 30.9754 6.46887C28.5087 4.00336 25.3664 2.32459 21.9457 1.6448C18.5251 0.965013 14.9796 1.31473 11.7577 2.64975C8.53574 3.98477 5.78197 6.24513 3.84455 9.14506C1.90713 12.045 0.873047 15.4543 0.873047 18.9418C0.873047 21.2584 1.32947 23.5523 2.21625 25.6925C3.10302 27.8326 4.40277 29.7771 6.04124 31.4148C7.67971 33.0525 9.62479 34.3513 11.7654 35.2371C13.9059 36.1229 16.2 36.5782 18.5166 36.5771Z" fill="#007BC7"/>
<mask id="mask0_82_438" style="mask-type:luminance" maskUnits="userSpaceOnUse" x="0" y="1" width="37" height="36">
<path d="M18.5166 36.5771C22.0042 36.5755 25.413 35.5398 28.312 33.601C31.211 31.6622 33.4701 28.9074 34.8036 25.6848C36.1371 22.4622 36.4851 18.9166 35.8037 15.4963C35.1223 12.0759 33.4421 8.93437 30.9754 6.46887C28.5087 4.00336 25.3664 2.32459 21.9457 1.6448C18.5251 0.965013 14.9796 1.31473 11.7577 2.64975C8.53574 3.98477 5.78197 6.24513 3.84455 9.14506C1.90713 12.045 0.873047 15.4543 0.873047 18.9418C0.873047 21.2584 1.32947 23.5523 2.21625 25.6925C3.10302 27.8326 4.40277 29.7771 6.04124 31.4148C7.67971 33.0525 9.62479 34.3513 11.7654 35.2371C13.9059 36.1229 16.2 36.5782 18.5166 36.5771Z" fill="white"/>
</mask>
<g mask="url(#mask0_82_438)">
<path d="M18.5746 27.4477C26.3238 27.4477 32.9589 29.6095 35.8108 32.6775C36.7912 30.4272 37.2951 27.9983 37.2908 25.5436C37.0873 20.7185 35.0273 16.1585 31.5412 12.8163C28.0551 9.47409 23.4124 7.6081 18.5829 7.6081C13.7535 7.6081 9.11081 9.47409 5.62468 12.8163C2.13854 16.1585 0.0785762 20.7185 -0.124916 25.5436C-0.13246 27.9996 0.365668 30.4308 1.33845 32.6859C4.18205 29.6095 10.8254 27.4477 18.5746 27.4477Z" fill="#007BC7"/>
<path d="M18.5746 27.4726C26.2988 27.4726 32.9256 29.6095 35.7609 32.6526C36.7412 30.4227 37.2453 28.0127 37.2409 25.5769C37.2409 15.5411 28.8764 7.38452 18.5746 7.38452C8.27278 7.38452 -0.0917078 15.5411 -0.0917078 25.5769C-0.0994798 28.023 0.4017 30.4439 1.37998 32.6859C4.21526 29.6095 10.842 27.4726 18.5746 27.4726Z" fill="#007DC8"/>
<path d="M18.5661 27.4892C26.2821 27.4892 32.8839 29.6095 35.7191 32.636C36.6882 30.4206 37.1865 28.0281 37.1825 25.6101C37.1825 15.6326 28.8679 7.5425 18.5661 7.5425C8.26432 7.5425 -0.0419689 15.6576 -0.0419689 25.6101C-0.0459219 28.0281 0.452391 30.4206 1.4214 32.636C4.24837 29.6095 10.8668 27.4892 18.5661 27.4892Z" fill="#007ECA"/>
<path d="M18.5665 27.5059C26.2575 27.5059 32.8427 29.6095 35.6697 32.611C36.6396 30.4165 37.1382 28.0428 37.133 25.6434C37.133 15.774 28.8184 7.70048 18.5665 7.70048C8.31461 7.70048 8.17004e-06 15.774 8.17004e-06 25.6517C-0.00233429 28.049 0.499059 30.42 1.47169 32.611C4.28203 29.6095 10.8838 27.5059 18.5665 27.5059Z" fill="#0080CB"/>
<path d="M18.566 27.5308C26.232 27.5308 32.8089 29.6178 35.6192 32.5861C36.589 30.412 37.0878 28.0573 37.0826 25.6767C37.0826 15.8904 28.768 7.85846 18.566 7.85846C8.36394 7.85846 0.0410241 15.8904 0.0410241 25.685C0.038633 28.0635 0.540208 30.4155 1.51271 32.5861C4.31473 29.6178 10.8999 27.5308 18.566 27.5308Z" fill="#0082CC"/>
<path d="M18.5659 27.5474C26.207 27.5474 32.7672 29.6178 35.5776 32.5362C36.5404 30.3836 37.0363 28.0514 37.0326 25.6933C37.0326 15.9818 28.718 7.98318 18.5659 7.98318C8.41378 7.98318 0.0908594 15.9818 0.0908594 25.6933C0.0857345 28.0524 0.584657 30.3855 1.55423 32.5362C4.38119 29.6178 10.9165 27.5474 18.5659 27.5474Z" fill="#0084CD"/>
<path d="M18.558 27.5641C26.1908 27.5641 32.6928 29.6178 35.5281 32.5528C36.49 30.4175 36.9861 28.1018 36.9831 25.7598C36.9831 16.1315 28.7351 8.17441 18.558 8.17441C8.3809 8.17441 0.132813 16.1232 0.132813 25.7515C0.132742 28.0941 0.631601 30.4098 1.59618 32.5445C4.38158 29.6178 10.9335 27.5641 18.558 27.5641Z" fill="#0086CF"/>
<path d="M18.5583 27.589C26.1662 27.589 32.6931 29.6178 35.4785 32.5196C36.4395 30.4045 36.9357 28.1079 36.9336 25.7847C36.9336 16.2313 28.7021 8.32408 18.5583 8.32408C8.41451 8.32408 0.224622 16.2396 0.224622 25.7847C0.221773 28.108 0.717983 30.4047 1.67968 32.5196C4.4235 29.6178 10.9505 27.589 18.5583 27.589Z" fill="#0088D0"/>
<path d="M18.5583 27.6056C26.1412 27.6056 32.6931 29.6261 35.437 32.4946C36.3923 30.4074 36.8858 28.1385 36.8837 25.8429C36.8837 16.3726 28.6772 8.50699 18.5916 8.50699C8.50595 8.50699 0.224609 16.356 0.224609 25.818C0.225376 28.1141 0.721694 30.383 1.67967 32.4697C4.45674 29.6261 10.9671 27.6056 18.5583 27.6056Z" fill="#008AD1"/>
<path d="M18.5163 27.6223C26.0909 27.6223 32.5763 29.6261 35.3534 32.478C36.3148 30.3928 36.8086 28.1225 36.8001 25.8263C36.8001 16.4391 28.6102 8.61509 18.508 8.61509C8.40574 8.61509 0.215854 16.4474 0.215854 25.8346C0.211121 28.1304 0.704728 30.3999 1.66259 32.4863C4.48956 29.6261 10.9833 27.6223 18.5163 27.6223Z" fill="#008CD3"/>
<path d="M18.5161 27.6472C26.0658 27.6472 32.5428 29.6261 35.3116 32.4531C36.2827 30.3986 36.7935 28.1569 36.8082 25.8845C36.8082 16.5805 28.6183 8.78969 18.5161 8.78969C8.41386 8.78969 0.315431 16.5888 0.315431 25.8928C0.314669 28.1588 0.8084 30.3976 1.76217 32.4531C4.52262 29.6261 11.033 27.6472 18.5161 27.6472Z" fill="#008ED4"/>
<path d="M18.516 27.6971C26.0408 27.6971 32.5012 29.6594 35.2616 32.4614C36.2117 30.4256 36.7027 28.2059 36.7001 25.9594C36.7001 16.7301 28.5518 8.98093 18.516 8.98093C8.48031 8.98093 0.365253 16.6969 0.365253 25.9261C0.361767 28.1727 0.852865 30.3926 1.80368 32.4281C4.55582 29.6261 11.0329 27.6971 18.516 27.6971Z" fill="#0090D5"/>
<path d="M18.5164 27.6971C25.9996 27.6971 32.46 29.651 35.2122 32.4198C36.1619 30.4045 36.6532 28.2038 36.6506 25.976C36.6506 16.8299 28.5272 9.12228 18.5164 9.12228C8.50565 9.12228 0.407227 16.8133 0.407227 25.9594C0.420658 28.19 0.925997 30.3902 1.88723 32.4032C4.59779 29.6344 11.0333 27.6971 18.5164 27.6971Z" fill="#0092D7"/>
<path d="M18.5164 27.6971C25.9995 27.6971 32.435 29.6261 35.1456 32.3782C36.1016 30.3985 36.6097 28.2325 36.6339 26.0342C36.6339 16.9297 28.4939 9.26363 18.5164 9.26363C8.53883 9.26363 0.457031 16.9297 0.457031 26.0342C0.461758 28.2309 0.950018 30.3997 1.88714 32.3865C4.63096 29.6344 11.0332 27.6971 18.5164 27.6971Z" fill="#0094D8"/>
<path d="M18.5168 27.6971C25.9999 27.6971 32.3939 29.6095 35.146 32.3367C36.0861 30.3682 36.5774 28.2156 36.5844 26.0342C36.5844 17.0544 28.5026 9.40497 18.5417 9.40497C8.58083 9.40497 0.499033 17.0295 0.499033 26.0342C0.496532 28.2264 0.985201 30.3913 1.92914 32.3699C4.66465 29.6344 11.0752 27.6971 18.5168 27.6971Z" fill="#0097D9"/>
<path d="M18.5167 27.7387C25.9998 27.7387 32.3522 29.6344 35.0877 32.3367C36.036 30.3707 36.5304 28.2169 36.5344 26.0342C36.5344 17.1625 28.4942 9.57127 18.5167 9.57127C8.53916 9.57127 0.548828 17.1625 0.548828 26.0342C0.549439 28.2038 1.03522 30.3458 1.97062 32.3034C4.69781 29.6344 11.0917 27.7387 18.5167 27.7387Z" fill="#0099DB"/>
<path d="M18.5161 27.7636C25.9494 27.7636 32.3267 29.6427 35.0456 32.32C35.9799 30.3798 36.4658 28.2542 36.4674 26.1007C36.4674 17.2789 28.4271 9.72924 18.5161 9.72924C8.60512 9.72924 0.589844 17.2789 0.589844 26.1007C0.591418 28.2542 1.07734 30.3798 2.01164 32.32C4.73052 29.6427 11.1078 27.7636 18.5161 27.7636Z" fill="#009BDC"/>
<path d="M18.5161 27.7802C25.9244 27.7802 32.2851 29.6427 34.9956 32.2951C35.9334 30.3767 36.4198 28.2692 36.4174 26.134C36.4174 17.3953 28.4021 9.88722 18.5161 9.88722C8.63002 9.88722 0.623053 17.3704 0.623053 26.134C0.621045 28.2683 1.10439 30.3751 2.03654 32.2951C4.76373 29.6427 11.1244 27.7802 18.5161 27.7802Z" fill="#009DDD"/>
<path d="M18.5165 27.8052C25.9082 27.8052 32.2439 29.6427 34.9545 32.2701C35.8855 30.3705 36.369 28.2828 36.368 26.1672C36.368 17.5117 28.3693 10.0452 18.5165 10.0452C8.66369 10.0452 0.665039 17.5283 0.665039 26.1672C0.668078 28.2823 1.15139 30.3691 2.07852 32.2701C4.80571 29.6427 11.1414 27.8052 18.5165 27.8052Z" fill="#009FDF"/>
<path d="M18.5164 27.8218C25.8831 27.8218 32.2105 29.6427 34.9045 32.2452C35.8326 30.3656 36.3136 28.2968 36.3096 26.2005C36.3263 17.6281 28.3609 10.2364 18.5164 10.2364C8.67189 10.2364 0.731446 17.6281 0.731446 26.2005C0.730796 28.2964 1.21154 30.3645 2.13661 32.2452C4.83886 29.6427 11.1663 27.8218 18.5164 27.8218Z" fill="#00A2E0"/>
<path d="M18.5168 27.8384C25.8669 27.8384 32.1777 29.6427 34.8716 32.2286C35.7931 30.3647 36.2712 28.313 36.2685 26.2337C36.2685 17.7445 28.328 10.3528 18.5168 10.3528C8.70557 10.3528 0.773438 17.7196 0.773438 26.242C0.774571 28.3191 1.25546 30.3679 2.1786 32.2286C4.87254 29.6427 11.1833 27.8384 18.5168 27.8384Z" fill="#00A4E1"/>
<path d="M18.5162 27.8634C25.8497 27.8634 32.1356 29.651 34.8212 32.2036C35.7402 30.3596 36.2184 28.3273 36.218 26.267C36.218 17.8609 28.2942 10.4692 18.5162 10.4692C8.73827 10.4692 0.814453 17.8194 0.814453 26.267C0.816868 28.3244 1.29494 30.3533 2.21131 32.1953C4.90524 29.651 11.1994 27.8634 18.5162 27.8634Z" fill="#00A6E3"/>
<path d="M18.5162 27.88C25.8247 27.88 32.1022 29.651 34.7712 32.1787C35.69 30.3583 36.1685 28.3477 36.1681 26.3086C36.1681 17.994 28.2692 10.6688 18.5162 10.6688C8.76313 10.6688 0.864258 17.9773 0.864258 26.3086C0.866892 28.3473 1.34519 30.3573 2.26111 32.1787C4.93841 29.651 11.2159 27.88 18.5162 27.88Z" fill="#00A9E4"/>
<path d="M18.5161 27.8967C25.808 27.8967 32.0689 29.651 34.7379 32.162C35.65 30.3575 36.1257 28.3639 36.1264 26.3418C36.1264 18.0937 28.2442 10.8268 18.5161 10.8268C8.78799 10.8268 0.914062 18.0937 0.914062 26.3418C0.914819 28.3639 1.39043 30.3575 2.3026 32.162C4.97159 29.651 11.2325 27.8967 18.5161 27.8967Z" fill="#00ABE5"/>
<path d="M18.5165 27.9216C25.7835 27.9216 32.0277 29.651 34.6884 32.1371C35.6002 30.3532 36.0761 28.3785 36.0769 26.3751C36.0769 18.2101 28.2196 10.9847 18.5165 10.9847C8.81335 10.9847 0.956055 18.2101 0.956055 26.3751C0.959716 28.3782 1.43542 30.3522 2.34459 32.1371C5.00527 29.651 11.2495 27.9216 18.5165 27.9216Z" fill="#00ADE7"/>
<path d="M18.5164 27.9382C25.7668 27.9382 31.9861 29.6594 34.6467 32.0955C35.5539 30.3311 36.0271 28.3757 36.027 26.3917C36.027 18.3016 28.1863 11.1178 18.5164 11.1178C8.84653 11.1178 1.00586 18.3265 1.00586 26.4083C1.00571 28.3923 1.47889 30.3477 2.38608 32.1122C5.04676 29.6593 11.2661 27.9382 18.5164 27.9382Z" fill="#00B0E8"/>
<path d="M18.5163 27.9632C25.7417 27.9632 31.9527 29.6261 34.5968 32.1205C35.5105 30.3674 35.9842 28.4185 35.977 26.4416C35.977 18.4429 28.1613 11.2924 18.5163 11.2924C8.87139 11.2924 1.05566 18.4429 1.05566 26.4499C1.05775 28.4124 1.5311 30.3457 2.43589 32.0872C5.07993 29.6593 11.2826 27.9632 18.5163 27.9632Z" fill="#00B2EA"/>
<path d="M18.5168 27.9798C25.7338 27.9798 31.9199 29.6427 34.5556 32.0706C35.4632 30.348 35.9369 28.4302 35.9358 26.4832C35.9275 18.551 28.1367 11.4504 18.5168 11.4504C8.89676 11.4504 1.09766 18.551 1.09766 26.4832C1.10192 28.4285 1.57236 30.3445 2.46957 32.0706C5.11361 29.6594 11.308 27.9798 18.5168 27.9798Z" fill="#0FB5EB"/>
<path d="M18.5162 27.9964C25.7083 27.9964 31.8778 29.6594 34.5135 32.0456C35.414 30.3417 35.8849 28.4437 35.8854 26.5164C35.8854 18.6674 28.1112 11.6083 18.5162 11.6083C8.92114 11.6083 1.13867 18.6674 1.13867 26.5164C1.14314 28.4432 1.61384 30.3403 2.51058 32.0456C5.14631 29.6677 11.3241 27.9964 18.5162 27.9964Z" fill="#1DB7EC"/>
<path d="M18.5161 28.0214C25.6833 28.0214 31.8195 29.6843 34.4635 32.0207C35.3624 30.3371 35.8336 28.4583 35.8354 26.5497C35.8354 18.7838 28.0862 11.7663 18.5161 11.7663C8.946 11.7663 1.18848 18.7838 1.18848 26.5497C1.19016 28.4573 1.65829 30.3355 2.55207 32.0207C5.21274 29.6677 11.3406 28.0214 18.5161 28.0214Z" fill="#27BAEE"/>
<path d="M18.516 28.038C25.6583 28.038 31.8194 29.7009 34.4219 32.0041C35.3144 30.3363 35.7827 28.4745 35.7855 26.5829C35.7771 18.9003 28.0446 11.8994 18.516 11.8994C8.98749 11.8994 1.23828 18.8836 1.23828 26.5663C1.24574 28.4573 1.71376 30.318 2.60188 31.9874C5.21266 29.6677 11.3572 28.038 18.516 28.038Z" fill="#2FBCEF"/>
<path d="M18.5164 28.0546C25.6504 28.0546 31.7699 29.6677 34.3807 31.9791C35.2672 30.3308 35.7301 28.4878 35.7277 26.6162C35.7277 19.0167 28.02 12.074 18.4998 12.074C8.9796 12.074 1.28027 19.0167 1.28027 26.6162C1.28316 28.4882 1.74873 30.3305 2.63555 31.9791C5.25466 29.6677 11.3742 28.0546 18.5164 28.0546Z" fill="#37BEF0"/>
<path d="M18.5169 28.1045C25.6425 28.1045 31.7537 29.7009 34.3562 31.9958C35.2481 30.3637 35.7169 28.5342 35.7198 26.6744C35.7198 19.1247 28.0205 12.2236 18.5169 12.2236C9.0133 12.2236 1.30566 19.1247 1.30566 26.6744C1.30954 28.5331 1.77526 30.3617 2.66095 31.9958C5.27173 29.7009 11.383 28.1045 18.5169 28.1045Z" fill="#45C0F0"/>
<path d="M18.5169 28.1461C25.6259 28.1461 31.7371 29.7342 34.3146 32.0207C35.2019 30.3992 35.6679 28.581 35.6699 26.7326C35.6699 19.2495 27.9872 12.365 18.4919 12.365C8.99665 12.365 1.32227 19.2245 1.32227 26.7326C1.33632 28.5846 1.81672 30.4033 2.71912 32.0207C5.28833 29.7342 11.3913 28.1461 18.5169 28.1461Z" fill="#50C2F1"/>
<path d="M18.5163 28.196C25.617 28.196 31.7199 29.7758 34.3141 32.0373C35.202 30.4281 35.6682 28.6204 35.6694 26.7825C35.6694 19.2994 27.995 12.5063 18.5163 12.5063C9.03769 12.5063 1.34668 19.3326 1.34668 26.7825C1.35689 28.6213 1.82862 30.4282 2.71859 32.0373C5.30443 29.7758 11.399 28.196 18.5163 28.196Z" fill="#5BC4F1"/>
<path d="M18.5168 28.2376C25.6091 28.2376 31.7037 29.809 34.3145 32.054C35.1833 30.4628 35.638 28.6786 35.6365 26.8656C35.6365 19.4573 27.9622 12.6726 18.5002 12.6726C9.03813 12.6726 1.37207 19.4324 1.37207 26.8656C1.37831 28.6807 1.84154 30.465 2.71904 32.054C5.32151 29.809 11.4161 28.2376 18.5168 28.2376Z" fill="#64C7F2"/>
<path d="M18.5163 28.2791C25.6003 28.2791 31.6783 29.8423 34.3141 32.0789C35.1806 30.4789 35.6269 28.6852 35.6111 26.8656C35.6111 19.5155 27.9534 12.7308 18.4997 12.7308C9.04597 12.7308 1.39654 19.5405 1.39654 26.8656C1.39094 28.687 1.84569 30.4803 2.71856 32.0789C5.33766 29.8423 11.4239 28.2791 18.5163 28.2791Z" fill="#6DC9F3"/>
<path d="M18.5167 28.329C25.5924 28.329 31.6621 29.8755 34.2562 32.0955C35.1323 30.5211 35.5957 28.7505 35.6032 26.9488C35.6032 19.6402 27.9538 12.9387 18.5167 12.9387C9.07963 12.9387 1.42188 19.6402 1.42188 26.9488C1.42536 28.7511 1.88899 30.5226 2.76884 32.0955C5.35468 29.8755 11.4327 28.329 18.5167 28.329Z" fill="#75CBF3"/>
<path d="M18.5166 28.3706C25.5841 28.3706 31.6454 29.9088 34.2312 32.1122C35.1118 30.5516 35.5757 28.7906 35.5782 26.9987C35.5782 19.7483 27.9454 13.08 18.5166 13.08C9.08788 13.08 1.45508 19.7317 1.45508 26.9987C1.46165 28.79 1.92527 30.55 2.80204 32.1122C5.37957 29.9088 11.4409 28.3706 18.5166 28.3706Z" fill="#7DCDF4"/>
<path d="M18.5161 28.4122C25.5752 28.4122 31.6282 29.942 34.2058 32.1371C35.084 30.5876 35.5479 28.8379 35.5527 27.0569C35.5361 19.8481 27.9116 13.2297 18.5161 13.2297C9.12061 13.2297 1.47949 19.8814 1.47949 27.0569C1.48731 28.8375 1.95103 30.5865 2.82646 32.1371C5.39567 29.942 11.4487 28.4205 18.5161 28.4122Z" fill="#84D0F4"/>
<path d="M18.5166 28.462C25.5591 28.462 31.6121 29.9836 34.1896 32.1537C35.0648 30.6151 35.5287 28.8769 35.5366 27.1068C35.5366 19.9562 27.9204 13.371 18.5166 13.371C9.11277 13.371 1.48828 19.9562 1.48828 27.1068C1.49218 28.8763 1.9533 30.6149 2.82693 32.1537C5.41277 29.9836 11.4658 28.462 18.5166 28.462Z" fill="#8BD2F5"/>
<path d="M18.5161 28.5286C25.5502 28.5286 31.5949 30.0418 34.1641 32.1953C35.0373 30.677 35.5014 28.958 35.5111 27.2065C35.5111 20.0976 27.9032 13.554 18.5161 13.554C9.12887 13.554 1.5127 20.056 1.5127 27.165C1.51945 28.9157 1.98072 30.6348 2.85135 32.1537C5.42887 30.0169 11.4736 28.5286 18.5161 28.5286Z" fill="#92D4F5"/>
<path d="M18.516 28.5286C25.5419 28.5286 31.57 30.0252 34.1475 32.1704C35.0199 30.6521 35.4813 28.9326 35.4861 27.1816C35.4861 20.1308 27.8866 13.6205 18.516 13.6205C9.14547 13.6205 1.5293 20.1641 1.5293 27.2149C1.53719 28.9655 1.99838 30.6842 2.86795 32.2036C5.44548 30.0501 11.4819 28.5286 18.516 28.5286Z" fill="#99D6F6"/>
<path d="M18.5165 28.5951C25.534 28.5951 31.5538 30.0834 34.123 32.2119C34.9946 30.7115 35.4562 29.0082 35.4616 27.2731C35.4616 20.2638 27.8787 13.8034 18.5165 13.8034C9.15424 13.8034 1.55469 20.2638 1.55469 27.2731C1.56398 29.0077 2.02537 30.71 2.89334 32.2119C5.46255 30.0834 11.4906 28.5951 18.5165 28.5951Z" fill="#9FD9F7"/>
<path d="M18.5159 28.6367C25.5252 28.6367 31.5366 30.1166 34.0975 32.2286C34.9689 30.7402 35.4308 29.0476 35.4362 27.3229C35.4362 20.3719 27.8616 13.9447 18.5159 13.9447C9.17033 13.9447 1.5791 20.3719 1.5791 27.3229C1.58329 29.0478 2.04524 30.7406 2.91775 32.2286C5.48697 30.1166 11.4984 28.645 18.5159 28.6367Z" fill="#A5DBF7"/>
<path d="M18.5164 28.6865C25.5173 28.6865 31.5204 30.1499 34.0813 32.2535C34.9453 30.7745 35.4041 29.094 35.4116 27.3812C35.4116 20.4717 27.8537 14.0778 18.5164 14.0778C9.17907 14.0778 1.62109 20.4634 1.62109 27.3812C1.62863 29.094 2.08748 30.7745 2.95143 32.2535C5.50401 30.1915 11.5072 28.6865 18.5164 28.6865Z" fill="#ABDDF8"/>
<path d="M18.5168 28.7281C25.5011 28.7281 31.5043 30.1832 34.0568 32.2701C34.9277 30.8058 35.3899 29.1347 35.3955 27.431C35.3955 20.5798 27.8375 14.2358 18.5168 14.2358C9.19617 14.2358 1.62988 20.5798 1.62988 27.431C1.63656 29.1335 2.09569 30.8035 2.96022 32.2701C5.52112 30.1915 11.5159 28.7281 18.5168 28.7281Z" fill="#B1DFF8"/>
<path d="M18.5168 28.778C25.4928 28.778 31.4793 30.2247 34.0402 32.2868C34.9032 30.8347 35.3625 29.1784 35.3705 27.4892C35.3539 20.6796 27.8125 14.3937 18.5168 14.3937C9.22109 14.3937 1.64648 20.6796 1.64648 27.4892C1.65332 29.1786 2.1127 30.8352 2.97682 32.2868C5.53772 30.1915 11.5325 28.778 18.5168 28.778Z" fill="#B7E1F9"/>
<path d="M18.5163 28.8196C25.4839 28.8196 31.4621 30.258 34.0147 32.3117C34.8775 30.8687 35.337 29.2204 35.345 27.5391C35.345 20.7877 27.812 14.5185 18.5163 14.5185C9.22056 14.5185 1.6709 20.7877 1.6709 27.5391C1.67894 29.2204 2.13839 30.8687 3.00123 32.3117C5.55382 30.258 11.5403 28.8196 18.5163 28.8196Z" fill="#BCE4F9"/>
<path d="M18.5167 28.8611C25.4761 28.8611 31.4459 30.2913 33.9985 32.3283C34.8547 30.8981 35.3112 29.2642 35.3205 27.5973C35.3205 20.8874 27.8374 14.6598 18.5167 14.6598C9.19606 14.6598 1.69629 20.8874 1.69629 27.5973C1.70559 29.2642 2.16215 30.8981 3.01831 32.3283C5.57089 30.2913 11.5491 28.8695 18.5167 28.8611Z" fill="#C1E6FA"/>
<path d="M18.5162 28.911C25.4672 28.911 31.4288 30.3245 33.973 32.345C34.8173 30.9404 35.2708 29.3358 35.2868 27.6971C35.2868 21.0454 27.8036 14.851 18.4996 14.851C9.19553 14.851 1.7207 20.9955 1.7207 27.6472C1.73121 29.3061 2.18784 30.9316 3.04273 32.3533C5.58699 30.3245 11.5569 28.911 18.5162 28.911Z" fill="#C7E8FA"/>
<path d="M18.5166 28.9526C25.4593 28.9526 31.4126 30.3578 33.9486 32.3699C34.8047 30.9614 35.2591 29.3454 35.2623 27.6971C35.2623 21.0454 27.7791 14.9425 18.5 14.9425C9.22092 14.9425 1.74609 21.0953 1.74609 27.6971C1.75374 29.3422 2.20778 30.9543 3.0598 32.3616C5.61238 30.3578 11.5656 28.9526 18.5166 28.9526Z" fill="#CCEAFB"/>
<path d="M18.5166 28.9942C25.4427 28.9942 31.3876 30.391 33.9319 32.3865C34.7862 30.9951 35.2434 29.3964 35.2539 27.7636C35.2539 21.1951 27.7708 15.0922 18.5166 15.0922C9.26247 15.0922 1.7627 21.2034 1.7627 27.7636C1.77326 29.3964 2.23045 30.9951 3.08472 32.3865C5.62899 30.391 11.5739 29.0025 18.5166 28.9942Z" fill="#D1ECFB"/>
<path d="M18.5161 29.0441C25.4338 29.0441 31.3704 30.4326 33.9064 32.3699C34.7603 30.9905 35.2177 29.4025 35.2284 27.7802C35.2284 21.2699 27.7453 15.2086 18.5161 15.2086C9.28685 15.2086 1.80371 21.2699 1.80371 27.7802C1.81586 29.4049 2.2731 30.9952 3.12573 32.3782C5.64506 30.4326 11.59 29.0441 18.5161 29.0441Z" fill="#D6EEFB"/>
<path d="M18.5165 29.0856C25.4259 29.0856 31.3543 30.4659 33.8902 32.4115C34.7362 31.0412 35.1905 29.4654 35.2039 27.8551C35.2039 21.3863 27.7208 15.3832 18.5165 15.3832C9.31225 15.3832 1.8291 21.4029 1.8291 27.8551C1.84252 29.4654 2.29687 31.0412 3.14281 32.4115C5.66213 30.4659 11.5988 29.094 18.5165 29.0856Z" fill="#DBF0FC"/>
<path d="M18.5169 29.1355C25.418 29.1355 31.338 30.4991 33.8657 32.4614C34.7074 31.0971 35.1509 29.5246 35.1461 27.9216C35.1461 21.511 27.663 15.5245 18.5169 15.5245C9.37084 15.5245 1.8877 21.511 1.8877 27.9216C1.89468 29.5224 2.34976 31.0893 3.2014 32.4447C5.67916 30.4991 11.6075 29.1355 18.5169 29.1355Z" fill="#E0F2FC"/>
<path d="M18.5169 29.1771C25.4097 29.1771 31.3214 30.5324 33.849 32.5029C34.6961 31.1463 35.1454 29.5792 35.1461 27.9798C35.1461 21.6108 27.663 15.6659 18.5169 15.6659C9.37084 15.6659 1.8877 21.6191 1.8877 27.9798C1.89836 29.5685 2.35031 31.1229 3.19309 32.4697C5.69578 30.5324 11.6158 29.1771 18.5169 29.1771Z" fill="#E5F4FD"/>
<path d="M18.5169 29.2187C25.4014 29.2187 31.3048 30.5656 33.8241 32.4863C34.6721 31.1533 35.13 29.6095 35.1461 28.0297C35.1461 21.7189 27.663 15.8155 18.5169 15.8155C9.37084 15.8155 1.8877 21.7189 1.8877 28.0297C1.90043 29.6088 2.35555 31.1528 3.2014 32.4863C5.72073 30.5656 11.6241 29.227 18.5169 29.2187Z" fill="#E9F6FD"/>
<path d="M18.5169 29.2686C25.3931 29.2686 31.2798 30.5989 33.7991 32.5029C34.6441 31.1843 35.0995 29.6539 35.1129 28.0879C35.1129 21.8187 27.6796 15.9569 18.4836 15.9569C9.28769 15.9569 1.8877 21.827 1.8877 28.0879C1.89858 29.6531 2.35106 31.1835 3.19309 32.5029C5.73736 30.5989 11.6324 29.2686 18.5169 29.2686Z" fill="#EEF8FE"/>
<path d="M18.5163 29.3101C25.3759 29.3101 31.2626 30.6405 33.7819 32.5196C34.6209 31.211 35.0733 29.6921 35.0873 28.1378C35.0707 21.9268 27.6624 16.0982 18.5163 16.0982C9.37025 16.0982 1.94531 21.9185 1.94531 28.1378C1.95637 29.6952 2.40902 31.2175 3.25071 32.5279C5.7534 30.6405 11.6401 29.36 18.5163 29.3101Z" fill="#F2FAFE"/>
<path d="M18.5168 29.36C25.368 29.36 31.2464 30.6737 33.7574 32.5445C34.6012 31.25 35.0571 29.7411 35.0711 28.196C35.0545 22.0265 27.6628 16.2479 18.5168 16.2479C9.3707 16.2479 1.9707 22.0681 1.9707 28.196C1.98303 29.739 2.4328 31.2469 3.26778 32.5445C5.77048 30.6737 11.6572 29.36 18.5168 29.36Z" fill="#F7FCFE"/>
<path d="M18.5163 29.4016C25.3592 29.4016 31.2293 30.707 33.7403 32.5611C34.5772 31.2763 35.0301 29.7792 35.0457 28.2459C35.0291 22.1346 27.6623 16.3892 18.5163 16.3892C9.3702 16.3892 1.97852 22.1346 1.97852 28.2459C1.99073 29.7785 2.44076 31.2758 3.27559 32.5611C5.7866 30.707 11.665 29.4016 18.5163 29.4016Z" fill="#FBFDFF"/>
<path d="M18.5162 29.4432C25.3508 29.4432 31.2126 30.7403 33.7153 32.5778C34.5519 31.3082 35.0051 29.8244 35.0207 28.3041C35.0207 22.2344 27.629 16.5306 18.5162 16.5306C9.40343 16.5306 1.99512 22.2344 1.99512 28.3041C2.00903 29.8261 2.45919 31.3122 3.29219 32.5861C5.8032 30.7402 11.6733 29.4515 18.5162 29.4432Z" fill="white"/>
</g>
</svg>
