<svg width="47" height="44" viewBox="0 0 47 44" fill="none" xmlns="http://www.w3.org/2000/svg">
<path d="M0.250826 10.0448C0.250826 10.0448 0.243132 8.60504 2.30052 8.82351C2.30052 8.82351 2.98683 8.90996 5.16578 9.04199C5.16578 9.04199 6.55071 9.17088 13.3738 10.1768C13.3738 10.1768 22.2881 11.3101 27.3308 10.9627C27.3308 10.9627 32.655 10.8527 37.7177 9.28091C37.7177 9.28091 43.8822 7.29573 44.864 6.80062C44.864 6.80062 45.241 6.55385 45.7303 6.88864C45.7303 6.88864 45.9457 7.12126 46.5105 6.90278C46.5105 6.90278 47.1629 6.80062 46.9613 7.56451C46.9613 7.56451 44.9378 11.5286 32.9982 14.7602C32.9982 14.7602 26.5644 16.2439 15.9959 17.0723C15.9959 17.0723 12.3443 17.4228 8.14799 18.1631C8.14799 18.1631 5.74899 18.6221 5.24426 17.6837C5.24426 17.6837 5.00113 17.2043 3.87164 16.7674C3.87164 16.7674 0 14.5055 0 11.7266C0.00153881 11.7266 0.4124 10.7395 0.250826 10.0448Z" fill="white"/>
<path d="M14.8603 31.407C14.8603 31.407 12.3489 26.0629 16.216 21.0976C16.216 21.0976 20.4415 16.2612 26.6337 19.7553C26.6337 19.7553 31.7672 22.2702 30.9316 29.7849C30.9316 29.7849 30.2299 38.2522 24.8117 43.7032C24.8117 43.7032 24.4594 44.1841 24.1731 43.9216C24.0747 43.832 24.1501 43.865 23.9962 43.8352C23.9962 43.8352 22.6651 44.4545 23.2929 42.7035C23.2929 42.7035 26.9599 30.0333 24.5978 26.4967C24.5978 26.4967 23.1775 24.0762 20.7893 25.7706C20.7893 25.7706 19.3213 26.9133 19.8522 30.0757C19.8522 30.0757 20.6862 32.5906 18.7304 33.3639C18.7304 33.3639 16.4914 34.362 14.8603 31.407Z" fill="white"/>
<path d="M18.249 4.31561C18.249 4.31561 18.2706 0.17708 22.5915 0.0922028C22.748 0.1029 22.9049 0.081524 23.0532 0.029332C23.0532 0.029332 25.3799 -0.247304 25.463 0.898533C25.4383 1.23435 25.39 1.56791 25.3183 1.89662C25.3183 1.89662 25.2968 2.34144 25.7953 2.68252C25.7953 2.68252 27.4788 4.65512 25.0475 7.39789C25.0475 7.39789 22.5146 9.73358 19.6047 7.39789C19.1905 7.00118 18.8574 6.52449 18.6247 5.99543C18.392 5.46636 18.2643 4.89541 18.249 4.31561Z" fill="white"/>
</svg>
