<svg id="레이어_1" data-name="레이어 1" xmlns="http://www.w3.org/2000/svg" viewBox="0 0 250 500"><polygon points="65.33 189 44.53 245 205.53 245 185.76 189 65.33 189" style="fill:#fff"/><path d="M209.07,247.5H40.94l22.65-61H187.53Zm-160.94-5H202l-18-51H67.07Z" style="fill:#e6e7e8"/><rect x="41" y="247" width="168" height="252.5" style="fill:#e6e7e8"/><rect x="41" y="247" width="89.5" height="252.5" style="fill:#d9d9d9"/><path d="M184.29,224.87l-6.37-19.72-.06-.2-2.28-7.29a2.78,2.78,0,0,0-3.15-1.93,2.26,2.26,0,0,0-1.67,3l1.32,4.38H157l-1.32-5.49a2.69,2.69,0,0,0-3-2,2.35,2.35,0,0,0-1.88,2.89l1.78,7.63h0l1.76,7.43H117.84L118,198a2.48,2.48,0,0,0-2.48-2.5,2.55,2.55,0,0,0-2.54,2.5l-.26,15.5H73.5l6.8-14.62a2.34,2.34,0,0,0-1.21-3.22,2.72,2.72,0,0,0-3.35,1.46l-8.55,18a2.37,2.37,0,0,0,.08,2.3,2.35,2.35,0,0,0,2,1.08h86.19l7,27.72,1.1,15.72a2.9,2.9,0,0,0,3,2.5,2.45,2.45,0,0,0,2.63-2.5L167.94,246a3.21,3.21,0,0,0-.07-.43l-9.69-37.51h15.43l5.62,17.83a3,3,0,0,0,2.92,2,2,2,0,0,0,.42,0A2.23,2.23,0,0,0,184.29,224.87Z" style="fill:#d9d9d9"/><polygon points="75.66 263 75.66 499.55 165.56 499.94 173.5 263 75.66 263" style="fill:#d9d9d9"/><path d="M190.64,239.76l-11.54.33a1.39,1.39,0,0,1-1.38-1l-5.81-20.75c-.14-.58.29-1.06,1-1.08l11.31-.37a1.44,1.44,0,0,1,1.44,1l6,20.78A.93.93,0,0,1,190.64,239.76Z" style="fill:#73eeba"/><path d="M184.67,222.22l-9.59.26a1.12,1.12,0,0,1-1.1-.79l-.51-2.19a.7.7,0,0,1,.74-.84l9.67-.27a1.1,1.1,0,0,1,1.1.8l.44,2.18A.72.72,0,0,1,184.67,222.22Z" style="fill:#fff"/><path d="M150,221s-2.42,17.94-31.16,24.22c-.73.16-1.46.32-2.19.51-5.3,1.39-33.85,7.94-40.65-9.73,0,0-6.29-13.55,53.49-20.65a48.89,48.89,0,0,1,9.13-.27C143.79,215.45,150.3,216.75,150,221Z" style="fill:#ddd"/><path d="M133,195.15,131.4,186c-2.24-11.2-10.86-13.41-15.18-13a14.73,14.73,0,0,0-11.36,4.89c-5.56,6.31-4.37,16.31-4.32,16.73,0,.14,0,.28.07.43l9,42A5,5,0,0,0,114.5,241a5.43,5.43,0,0,0,1-.11,5,5,0,0,0,3.84-5.94l-9-41.75c-.22-2.32.1-6.64,1.92-8.7.58-.64,1.63-1.5,4.14-1.5a4,4,0,0,0,.5,0c1.06-.09,3.64.2,4.57,4.88l1.56,9a5,5,0,1,0,9.85-1.7Z" style="fill:#613813"/><path d="M76,236s12,16,29,0c0,0,11,7,21-4,0,0,17,6,24-11l21,279H156Z" style="fill:#515151"/><g style="opacity:0.9"><path d="M110.32,252.66a.75.75,0,0,1-.71-.13,1.11,1.11,0,0,1-.42-.72,1.77,1.77,0,0,1,0-.46,1.28,1.28,0,0,1,.13-.42,3.76,3.76,0,0,0,.27-.62c.08-.25.17-.73.17-.73a6.58,6.58,0,0,0,.41.56,3.39,3.39,0,0,0,.45.4,1,1,0,0,1,.27.3,1.11,1.11,0,0,1,.14.41,1.38,1.38,0,0,1-.12.89A1,1,0,0,1,110.32,252.66Z" style="fill:#73eeba"/><path d="M110.91,255.35c-.78-.58-1.55-1.15-2.32-1.75-.17-.14-.14-1.19-.79-1.18-1,0-.88,1.13-.73,1.6-.33.79-1.38,2.4-1.8,3.34-.46.79-.07,1.63.75,1.2a3.81,3.81,0,0,0,.79-1.14c.2-.32.42-.67.62-1l.6,3.33.07.36a.61.61,0,0,1,0,.14.14.14,0,0,1,0,.07h0l0,0-.08,0h-.09l0,0h0l0-.06a1.86,1.86,0,0,1,0-.33V260a.68.68,0,0,0-.7-.72.72.72,0,0,0-.44.24.88.88,0,0,0-.23.56,2.61,2.61,0,0,0,.21,1,1.43,1.43,0,0,0,.51.6,1.48,1.48,0,0,0,1.09.17,1.6,1.6,0,0,0,1-.66,2.26,2.26,0,0,0,.35-1.52,9,9,0,0,0-.16-.93l-.39-2.15-.15-.86,1.4.9C111.32,257.67,112.11,256.17,110.91,255.35Z" style="fill:#fff"/><path d="M116.26,253.72c-.79-.57-1.56-1.14-2.33-1.75-.17-.13-.13-1.18-.79-1.16-1,0-.88,1.11-.73,1.58-.32.78-1.38,2.38-1.8,3.32-.45.78-.06,1.63.75,1.19.38-.26.54-.75.8-1.13s.41-.66.61-1l.59,3.27.07.36a.61.61,0,0,1,0,.14.14.14,0,0,1,0,.07h0l0,0-.09,0h-.09l0,0h0l0-.06a1.86,1.86,0,0,1,0-.33v.1a.64.64,0,0,0-1.14-.48.83.83,0,0,0-.23.55,2.61,2.61,0,0,0,.21,1,1.35,1.35,0,0,0,1.61.76,1.59,1.59,0,0,0,1-.65,2.26,2.26,0,0,0,.35-1.52,9.3,9.3,0,0,0-.16-.92l-.39-2.13-.15-.83,1.41.91C116.66,256,117.46,254.54,116.26,253.72Z" style="fill:#fff"/><path d="M118.71,252.73A5.37,5.37,0,0,0,120.8,249l-.35-1.94,1.39-.41.25,1.32a9.06,9.06,0,0,1,2.32,1.81l-1,1a5.72,5.72,0,0,0-1.36-1.12,7.2,7.2,0,0,1-2.6,4.25Zm4.71-1.42c1.83-1.47,2.23-2.72,2.11-3.62l-.37-2,1.4-.41.36,1.95a3.8,3.8,0,0,0,3.13,2.13l-.23,1.46a5.27,5.27,0,0,1-3.19-1.57,7.46,7.46,0,0,1-2.49,3.27Z" style="fill:#73eeba"/><polygon points="119.23 256.23 130.8 252.73 131.08 254.23 119.5 257.75 119.23 256.23" style="fill:#fff"/><polygon points="134.83 253.11 134.48 251.22 131.72 252.04 131.44 250.54 142.86 247.17 143.13 248.66 140.39 249.46 140.74 251.34 139.34 251.76 138.99 249.88 135.88 250.8 136.22 252.69 134.83 253.11" style="fill:#fff"/><path d="M131.11,247.85c2.78-1.41,4-2.77,4.41-3.73l-.26-1.41,1.4-.41.26,1.38c.67.48,2.25.88,5.18.62l.05,1.53a10.56,10.56,0,0,1-5.65-.64,11.46,11.46,0,0,1-4.89,4.08Z" style="fill:#73eeba"/><g style="isolation:isolate"><path d="M111.91,262.49a.48.48,0,0,1,0-.12l0-.12a.22.22,0,0,1,.07-.09.16.16,0,0,1,.08-.06l.76-.23.07.33-.67.21.2,1.09.73-.23.07.34-.84.26h-.09l-.09-.05a.27.27,0,0,1-.07-.08.56.56,0,0,1,0-.12Zm1.58,1.76-.44-2.44.33-.11.13.74.19-.06-.13-.74.33-.1.44,2.44-.33.11-.25-1.38-.19.06.25,1.37Z" style="fill:#c1c1c1"/><path d="M115.39,261.43l-.06-.33,1.18-.37.06.34-.42.13v.06a.66.66,0,0,0,.08.21.67.67,0,0,0,.14.15.71.71,0,0,0,.18.08.32.32,0,0,0,.17,0l.06.33-.22,0a.63.63,0,0,1-.19,0,.65.65,0,0,1-.16-.09.86.86,0,0,1-.14-.13.84.84,0,0,1-.08.2,1,1,0,0,1-.11.17,1.07,1.07,0,0,1-.16.14.75.75,0,0,1-.2.1l-.06-.32a.44.44,0,0,0,.15-.1.7.7,0,0,0,.13-.17.83.83,0,0,0,.08-.22.88.88,0,0,0,0-.23v-.07Zm2,1.25-.24-1.3-.42.13-.06-.34.42-.13-.08-.46.33-.1.44,2.43-1.62.51a.17.17,0,0,1-.1,0,.2.2,0,0,1-.09-.05l-.06-.08a.28.28,0,0,1,0-.12l-.12-.64.33-.1.11.62Z" style="fill:#c1c1c1"/><path d="M119.64,261a1.14,1.14,0,0,1-.09.26.83.83,0,0,1-.14.22,1.66,1.66,0,0,1-.18.19l-.2.14-.07-.35a.67.67,0,0,0,.2-.17.82.82,0,0,0,.14-.26.88.88,0,0,0,.06-.33,1.59,1.59,0,0,0,0-.42l-.07-.4.33-.1.07.4a1.5,1.5,0,0,0,.12.39.84.84,0,0,0,.17.26.58.58,0,0,0,.45.19l.06.35h-.23a.9.9,0,0,1-.22-.06.88.88,0,0,1-.21-.12A.93.93,0,0,1,119.64,261Zm.8-1.49.34-.1.44,2.43-.33.1Z" style="fill:#c1c1c1"/><path d="M123.76,259.87l-1,.32h-.1a.13.13,0,0,1-.09,0,.22.22,0,0,1-.07-.09.34.34,0,0,1,0-.12l-.18-1,1.26-.39Zm-.74.47.1.55,1.52-.47.06.34-1.59.49a.22.22,0,0,1-.21,0,.32.32,0,0,1-.1-.19l-.11-.6Zm-.37-1.15.12.63.59-.18-.11-.63Zm1.56.89-.3-1.63.33-.1.3,1.63Z" style="fill:#c1c1c1"/><path d="M128.09,258.54l-.44.14a1.07,1.07,0,0,1,.14.16.78.78,0,0,1,.08.23.86.86,0,0,1,0,.32.67.67,0,0,1-.1.28,1,1,0,0,1-.22.23.9.9,0,0,1-.31.15.76.76,0,0,1-.32,0,.77.77,0,0,1-.27-.07.61.61,0,0,1-.2-.19.92.92,0,0,1-.11-.29,1,1,0,0,1,0-.25.62.62,0,0,1,.07-.23l-.45.14-.06-.34.7-.21-.08-.43.34-.1.07.43.65-.2-.1-.59s0,0,0,0l-1.56.48-.07-.33,1.68-.51a.21.21,0,0,1,.11,0,.18.18,0,0,1,.09,0l.07.07a.21.21,0,0,1,0,.1l.13.68.11,0Zm-1.06.34a.56.56,0,0,0-.17.09.49.49,0,0,0-.12.13.44.44,0,0,0-.06.16.48.48,0,0,0,0,.17.44.44,0,0,0,.06.16.35.35,0,0,0,.11.1.44.44,0,0,0,.15.05.37.37,0,0,0,.18,0,.46.46,0,0,0,.17-.09.37.37,0,0,0,.12-.13.39.39,0,0,0,.06-.15.54.54,0,0,0,0-.18.44.44,0,0,0-.06-.16.35.35,0,0,0-.11-.1.33.33,0,0,0-.15-.05A.55.55,0,0,0,127,258.88Z" style="fill:#c1c1c1"/><path d="M130.23,256.38l.25,0a.48.48,0,0,1,.21.07.46.46,0,0,1,.16.15.79.79,0,0,1,.09.23.81.81,0,0,1,0,.22.62.62,0,0,1-.07.19l.14,0,0,.27.46-.14.05.29-.47.15a.5.5,0,0,1,.14.15.7.7,0,0,1,.08.2.86.86,0,0,1,0,.32,1,1,0,0,1-.11.28.84.84,0,0,1-.5.35.87.87,0,0,1-.31,0,.53.53,0,0,1-.25-.08.58.58,0,0,1-.31-.46.59.59,0,0,1,0-.23.79.79,0,0,1,.06-.22l-.46.14-.06-.29.46-.14,0-.27.14,0a.58.58,0,0,1-.13-.14.52.52,0,0,1-.07-.2.7.7,0,0,1,0-.25.92.92,0,0,1,.09-.23.73.73,0,0,1,.17-.18A.71.71,0,0,1,130.23,256.38Zm.06.32a.32.32,0,0,0-.18.14.33.33,0,0,0,0,.22.29.29,0,0,0,.12.18.23.23,0,0,0,.2,0,.27.27,0,0,0,.18-.13.33.33,0,0,0,0-.22.24.24,0,0,0-.11-.18A.25.25,0,0,0,130.29,256.7Zm.23,1.23a.49.49,0,0,0-.28.19.5.5,0,0,0-.05.32.37.37,0,0,0,.16.26.41.41,0,0,0,.31,0,.42.42,0,0,0,.33-.51.35.35,0,0,0-.16-.25A.36.36,0,0,0,130.52,257.93Zm.2-.5-.13.09-.14.05-.15,0h-.14l0,.11.56-.17Z" style="fill:#c1c1c1"/><path d="M134,257.91l-.12-.66-.9.27-.06-.33,2.13-.64.06.33-.9.27.12.66Zm-.3-2.55a.54.54,0,0,1,.28,0,.53.53,0,0,1,.24.08.58.58,0,0,1,.18.17.55.55,0,0,1,.1.26.66.66,0,0,1,0,.28,1,1,0,0,1-.1.27.89.89,0,0,1-.19.2.6.6,0,0,1-.25.13.69.69,0,0,1-.28,0,.61.61,0,0,1-.24-.07.77.77,0,0,1-.18-.18.55.55,0,0,1-.1-.26.66.66,0,0,1,0-.28.82.82,0,0,1,.1-.26.76.76,0,0,1,.19-.21A.77.77,0,0,1,133.7,255.36Zm.06.33-.13.07a.31.31,0,0,0-.09.11.34.34,0,0,0,0,.14.33.33,0,0,0,0,.14.25.25,0,0,0,0,.13.43.43,0,0,0,.09.1l.12,0a.39.39,0,0,0,.15,0,.34.34,0,0,0,.22-.17.39.39,0,0,0,0-.28.33.33,0,0,0-.14-.23A.36.36,0,0,0,133.76,255.69Z" style="fill:#c1c1c1"/><path d="M137,254.61a1.36,1.36,0,0,0,.11.37.72.72,0,0,0,.16.21.38.38,0,0,0,.2.1.64.64,0,0,0,.24,0l.06.34-.24,0a.76.76,0,0,1-.21,0,.57.57,0,0,1-.19-.1.69.69,0,0,1-.17-.17.87.87,0,0,1-.22.44,1.56,1.56,0,0,1-.4.27l-.07-.34a.77.77,0,0,0,.21-.14.6.6,0,0,0,.14-.2.82.82,0,0,0,.07-.28,1.45,1.45,0,0,0,0-.4l0-.12.33-.1Zm-.12,1.5.1.55,1.47-.44.06.33-1.54.46a.22.22,0,0,1-.21,0,.29.29,0,0,1-.1-.19l-.11-.59Zm1.14-.23-.3-1.62.33-.09.1.52.35-.11.06.33-.35.11.14.76Z" style="fill:#c1c1c1"/></g></g></svg>