<svg width="90" height="90" viewBox="0 0 90 90" fill="none" xmlns="http://www.w3.org/2000/svg">
<mask id="mask0_34_1921" style="mask-type:alpha" maskUnits="userSpaceOnUse" x="0" y="0" width="90" height="90">
<rect width="90" height="90" fill="#D9D9D9"/>
</mask>
<g mask="url(#mask0_34_1921)">
<path d="M64.3125 77.625L41.625 54.75C40.375 55.25 39.1094 55.625 37.8281 55.875C36.5469 56.125 35.1875 56.25 33.75 56.25C27.5 56.25 22.1875 54.0625 17.8125 49.6875C13.4375 45.3125 11.25 40 11.25 33.75C11.25 31.5 11.5625 29.3594 12.1875 27.3281C12.8125 25.2969 13.6875 23.375 14.8125 21.5625L28.5 35.25L35.25 28.5L21.5625 14.8125C23.375 13.6875 25.2969 12.8125 27.3281 12.1875C29.3594 11.5625 31.5 11.25 33.75 11.25C40 11.25 45.3125 13.4375 49.6875 17.8125C54.0625 22.1875 56.25 27.5 56.25 33.75C56.25 35.1875 56.125 36.5469 55.875 37.8281C55.625 39.1094 55.25 40.375 54.75 41.625L77.625 64.3125C78.375 65.0625 78.75 65.9688 78.75 67.0312C78.75 68.0938 78.375 69 77.625 69.75L69.75 77.625C69 78.375 68.0938 78.75 67.0312 78.75C65.9688 78.75 65.0625 78.375 64.3125 77.625ZM67.0312 69.6562L69.5625 67.125L45.5625 43.125C46.6875 41.875 47.5 40.4219 48 38.7656C48.5 37.1094 48.75 35.4375 48.75 33.75C48.75 30 47.5469 26.7344 45.1406 23.9531C42.7344 21.1719 39.75 19.5 36.1875 18.9375L43.125 25.875C43.875 26.625 44.25 27.5 44.25 28.5C44.25 29.5 43.875 30.375 43.125 31.125L31.125 43.125C30.375 43.875 29.5 44.25 28.5 44.25C27.5 44.25 26.625 43.875 25.875 43.125L18.9375 36.1875C19.5 39.75 21.1719 42.7344 23.9531 45.1406C26.7344 47.5469 30 48.75 33.75 48.75C35.375 48.75 37 48.5 38.625 48C40.25 47.5 41.7188 46.7188 43.0313 45.6562L67.0312 69.6562Z" fill="#303030"/>
</g>
</svg>
