<svg width="414" height="297" viewBox="0 0 414 297" fill="none" xmlns="http://www.w3.org/2000/svg">
<path d="M398 109C398 157.023 358.85 196 310.5 196C262.149 196 223 157.023 223 109C223 60.9767 262.149 22 310.5 22C358.85 22 398 60.9767 398 109Z" stroke="white" stroke-width="10"/>
<path d="M306 189C306 212.013 290.772 233.648 264.452 249.792C238.215 265.884 201.651 276 161 276C120.349 276 83.7854 265.884 57.5481 249.792C31.2276 233.648 16 212.013 16 189C16 165.987 31.2276 144.352 57.5481 128.208C83.7854 112.116 120.349 102 161 102C201.651 102 238.215 112.116 264.452 128.208C290.772 144.352 306 165.987 306 189Z" stroke="white" stroke-width="10"/>
</svg>
