<svg width="735" height="419" viewBox="0 0 735 419" fill="none" xmlns="http://www.w3.org/2000/svg">
<path d="M390 134C390 160.884 372.248 186.019 341.858 204.693C311.55 223.318 269.363 235 222.5 235C175.637 235 133.45 223.318 103.142 204.693C72.7515 186.019 55 160.884 55 134C55 107.116 72.7515 81.9813 103.142 63.3067C133.45 44.6824 175.637 33 222.5 33C269.363 33 311.55 44.6824 341.858 63.3067C372.248 81.9813 390 107.116 390 134Z" stroke="white" stroke-width="10"/>
<path d="M680 281.5C680 294.764 672.669 308.037 657.996 320.73C643.337 333.411 621.834 345.059 594.828 354.94C540.858 374.687 465.966 387 383 387C300.034 387 225.142 374.687 171.172 354.94C144.166 345.059 122.663 333.411 108.004 320.73C93.3306 308.037 86 294.764 86 281.5C86 268.236 93.3306 254.963 108.004 242.27C122.663 229.589 144.166 217.941 171.172 208.06C225.142 188.313 300.034 176 383 176C465.966 176 540.858 188.313 594.828 208.06C621.834 217.941 643.337 229.589 657.996 242.27C672.669 254.963 680 268.236 680 281.5Z" stroke="white" stroke-width="10"/>
</svg>
